<svg width="1024" height="1024" viewBox="0 0 1024 1024" fill="none" xmlns="http://www.w3.org/2000/svg">
<g clip-path="url(#clip0_73_2)">
<path d="M512.33 657.14C613.161 657.14 694.9 575.401 694.9 474.57C694.9 373.739 613.161 292 512.33 292C411.499 292 329.76 373.739 329.76 474.57C329.76 575.401 411.499 657.14 512.33 657.14Z" fill="#4FAF4E"/>
<path d="M299.95 474.35H724.72C796.02 474.35 853.67 532 853.67 603.3C853.67 674.6 796.02 732.25 724.72 732.25H299.95C228.65 732.25 171 674.6 171 603.3C171 532 228.65 474.35 299.95 474.35Z" fill="#4FAF4E"/>
</g>
<defs>
<clipPath id="clip0_73_2">
<rect width="682.67" height="440.25" fill="white" transform="translate(171 292)"/>
</clipPath>
</defs>
</svg>
