<?xml version="1.0" standalone="no"?>
<!DOCTYPE svg PUBLIC "-//W3C//DTD SVG 20010904//EN"
 "http://www.w3.org/TR/2001/REC-SVG-20010904/DTD/svg10.dtd">
<svg version="1.0" xmlns="http://www.w3.org/2000/svg"
 width="700.000000pt" height="700.000000pt" viewBox="0 0 700.000000 700.000000"
 preserveAspectRatio="xMidYMid meet">
<metadata>
Created by potrace 1.14, written by Peter Selinger 2001-2017
</metadata>
<g transform="translate(0.000000,700.000000) scale(0.100000,-0.100000)"
fill="#000000" stroke="none">
<path d="M3425 4999 c-60 -3 -119 -9 -130 -12 -11 -3 -36 -8 -55 -11 -57 -8
-217 -64 -289 -101 -316 -160 -550 -439 -645 -769 -34 -117 -42 -165 -49 -298
-2 -20 -5 -40 -9 -43 -4 -4 -78 -8 -165 -10 -170 -3 -246 -16 -362 -62 -252
-101 -450 -323 -523 -590 -29 -107 -31 -334 -4 -438 88 -330 342 -576 671
-650 75 -17 177 -18 1600 -19 836 -1 1554 2 1595 7 191 19 374 109 515 252 84
85 99 105 147 190 75 135 105 249 107 415 3 185 -32 322 -117 465 -46 76 -44
74 -126 161 -127 135 -279 217 -481 259 -16 4 -101 8 -188 10 -87 2 -160 5
-162 7 -1 1 -6 41 -9 88 -25 310 -158 591 -384 808 -200 192 -472 317 -737
338 -38 3 -74 6 -80 7 -5 2 -59 0 -120 -4z"/>
</g>
</svg>
